<svg xmlns="http://www.w3.org/2000/svg" fill="none" viewBox="253.2435 119.87145 619.5 454.5" style="max-height: 500px" width="619.5" height="454.5">
<g clip-path="url(#clip0_1_2)">
<path stroke-width="3" stroke="white" fill="white" d="M619.3 444C606.9 444 594.6 444 582.2 444C579.5 444 578.5 443.1 579.3 440.4C582.1 431 585 421.7 587.7 412.3C596.3 382.6 604.8 352.8 613.5 323.1C617.2 310.5 621.4 298.1 625.1 285.6C630.7 266.6 636.2 247.5 641.6 228.5C646.9 210 651.9 191.5 657.2 173C661.3 158.6 665.5 144.2 669.9 129.8C670.2 128.7 672 127.3 673.1 127.3C698.2 127.2 723.3 127.2 748.5 127.2C750.9 127.2 751.6 128.2 750.9 130.5C747.2 142.6 743.5 154.7 740 166.8C736.8 177.6 733.9 188.5 730.8 199.4C726.9 212.7 723 226 719 239.3C714.1 255.9 709.1 272.5 704.2 289.2C698.6 308.4 693 327.7 687.4 347C683.2 361.7 678.9 376.3 674.7 391C670.3 406.5 666 422 661.6 437.4C661.3 438.5 660.6 439.5 660.5 440.5C660.3 443.8 658.3 444.1 655.6 444.1C643.5 444 631.4 444 619.3 444Z"/>
<path stroke-width="3" stroke="white" fill="white" d="M720.9 444C708.9 444 696.9 444 684.9 444C680.1 444 680.1 443.9 681.5 438.8C685.2 426 688.9 413.1 692.7 400.2C696.9 385.8 701 371.4 705.3 357C709.2 343.8 713.5 330.7 717.4 317.6C721.4 304.1 725.1 290.5 729 277C732.7 263.9 736.5 250.9 740.2 237.8C744.8 221.7 749.3 205.6 754 189.6C757.7 176.7 761.7 164 765.5 151.1C767.6 144 769.6 136.8 771.4 129.6C771.9 127.6 772.9 127.1 774.8 127.1C799.9 127.1 825 127.1 850.1 127.1C852.5 127.1 853.2 128 852.5 130.3C847.2 147.9 841.9 165.4 836.8 183C831.5 201.2 826.5 219.5 821.2 237.7C818.2 248 814.6 258.2 811.6 268.6C807.7 281.9 804.1 295.3 800.3 308.6C796.1 323.4 791.8 338.1 787.5 352.8C782.2 371 776.7 389.1 771.4 407.4C768.4 417.7 765.6 428.1 762.8 438.5C761.4 443.6 761 444 755.7 444C744.2 444 732.5 444 720.9 444Z"/>
<path fill="#C5050C" d="M274.4 127.6C276.3 127.5 277.5 127.3 278.7 127.3C302.9 127.3 327.2 127.4 351.4 127.2C354.3 127.2 355.6 128 356.4 130.8C361.1 147.6 366 164.3 370.8 181.1C375.4 196.8 380 212.5 384.5 228.3C388.9 243.7 393.2 259.1 397.7 274.5C401.4 287.5 405.3 300.4 409.1 313.3C409.6 315 410.1 316.7 411.5 318.4C413.4 313.2 415.3 308 417.1 302.7C422.4 287.3 427.6 271.9 432.9 256.5C438.4 240.4 443.9 224.2 449.5 208.1C454.6 193.2 459.8 178.2 464.9 163.3C468.6 152.4 472.4 141.4 476.1 130.4C476.9 128 478.1 127.1 480.6 127.1C495.1 127.2 509.6 127.2 524.1 127.1C526.4 127.1 527.4 127.9 528.1 130C534.2 147.9 540.3 165.8 546.4 183.7C553.1 203.2 559.9 222.7 566.6 242.3C572.9 260.8 579.2 279.2 585.5 297.7C587.8 304.4 590.2 311.1 592.3 317.8C592.8 319.6 592.8 321.8 592.3 323.6C584.2 351.7 576 379.8 567.9 407.9C566.8 411.6 565.8 415.3 564.6 419C564.3 420 563.8 420.9 563.4 421.9C563.1 421.9 562.7 421.9 562.4 421.9C542.5 361.5 522.6 301.1 502.7 240.8C502.4 240.8 502.1 240.8 501.9 240.8C500.8 243.9 499.6 246.9 498.5 250C490.9 273 483.4 296 475.9 319.1C470.6 335.3 465.3 351.5 459.9 367.6C452.2 390.9 444.4 414.1 436.6 437.3C436.3 438.2 436.1 439.2 435.9 440.2C435.4 442.3 434.3 443.2 432 443.2C413 443.1 394 443.1 375 443.2C372.6 443.2 371.7 442.2 371.1 440.2C364.8 419.4 358.4 398.5 352 377.7C344.2 352.4 336.3 327.1 328.5 301.7C321.8 280.1 315.2 258.4 308.6 236.8C302.1 215.5 295.6 194.2 289 173C284.1 158.1 279.3 143.2 274.4 127.6Z"/>
<g clip-path="url(#clip1_1_2)">
<path fill="white" d="M274.243 564.795L262.318 476.896H276.569L282.677 532.062L294.311 483.809H303.036L314.67 531.921L319.469 476.896H332.848L321.068 564.795H310.743L297.946 510.617L284.858 564.795H274.243ZM375.892 566.347C371.045 566.347 366.537 565.595 362.368 564.09C358.296 562.585 354.709 560.422 351.607 557.6C348.602 554.684 346.275 551.11 344.627 546.877C342.979 542.644 342.155 537.847 342.155 532.486C342.155 527.03 342.979 522.139 344.627 517.812C346.275 513.485 348.505 509.817 351.316 506.807C354.225 503.797 357.618 501.54 361.496 500.035C365.373 498.436 369.542 497.636 374.002 497.636C377.977 497.636 381.709 498.295 385.199 499.611C388.689 500.928 391.743 502.951 394.361 505.678C397.075 508.312 399.209 511.651 400.759 515.696C402.31 519.646 403.086 524.255 403.086 529.523C403.086 530.463 403.037 531.592 402.941 532.909C402.941 534.226 402.892 535.355 402.795 536.295H358.005C358.199 539.399 358.83 542.08 359.896 544.337C360.962 546.501 362.368 548.288 364.113 549.699C365.858 551.11 367.797 552.191 369.93 552.944C372.063 553.602 374.293 553.931 376.619 553.931C378.655 553.931 380.595 553.743 382.436 553.367C384.376 552.991 386.168 552.332 387.817 551.392C389.562 550.451 391.21 549.228 392.761 547.723L401.196 555.625C399.063 558.07 396.639 560.139 393.925 561.833C391.307 563.432 388.447 564.56 385.345 565.219C382.34 565.971 379.188 566.347 375.892 566.347ZM358.296 524.302H387.09C387.09 522.045 386.75 520.023 386.072 518.235C385.49 516.448 384.618 514.943 383.454 513.721C382.291 512.498 380.837 511.604 379.092 511.04C377.443 510.381 375.505 510.052 373.275 510.052C371.433 510.052 369.639 510.334 367.894 510.899C366.246 511.369 364.743 512.216 363.386 513.438C362.029 514.661 360.914 516.166 360.041 517.953C359.169 519.74 358.587 521.857 358.296 524.302ZM452.675 566.489C450.252 566.489 447.925 566.159 445.695 565.501C443.465 564.843 441.381 563.855 439.442 562.538C437.6 561.127 435.903 559.481 434.352 557.6L431.589 564.795H419.083V470.123H435.515H436.969V471.393C436.388 471.958 436 472.569 435.806 473.227C435.709 473.886 435.661 475.015 435.661 476.614V506.525C436.727 505.208 437.891 503.985 439.151 502.857C440.411 501.728 441.817 500.787 443.368 500.035C444.919 499.188 446.518 498.577 448.167 498.201C449.912 497.824 451.657 497.636 453.402 497.636C457.57 497.636 461.304 498.342 464.6 499.753C467.993 501.163 470.853 503.28 473.179 506.102C475.603 508.829 477.445 512.263 478.705 516.401C480.063 520.54 480.741 525.384 480.741 530.934C480.741 536.953 479.965 542.221 478.415 546.736C476.96 551.157 474.924 554.825 472.307 557.741C469.689 560.657 466.684 562.867 463.291 564.372C459.995 565.783 456.456 566.489 452.675 566.489ZM449.33 554.073C451.366 554.073 453.305 553.696 455.147 552.944C456.989 552.097 458.588 550.827 459.946 549.134C461.304 547.441 462.369 545.231 463.145 542.503C463.921 539.681 464.309 536.295 464.309 532.345C464.309 528.77 463.969 525.572 463.291 522.75C462.612 519.929 461.642 517.577 460.382 515.696C459.122 513.721 457.57 512.216 455.729 511.181C453.984 510.146 451.948 509.629 449.621 509.629C446.809 509.629 444.337 510.523 442.205 512.31C440.169 514.003 438.618 516.495 437.551 519.787C436.484 523.08 435.903 527.03 435.806 531.639C435.806 535.213 436.048 538.411 436.533 541.233C437.115 543.961 437.939 546.313 439.005 548.288C440.169 550.169 441.574 551.627 443.223 552.662C444.968 553.602 447.003 554.073 449.33 554.073Z"/>
<path fill="#C5050C" d="M493.829 564.795V476.896H517.242C522.574 476.896 527.034 477.366 530.621 478.307C534.305 479.247 537.407 480.611 539.928 482.398C542.545 484.185 544.872 486.396 546.908 489.03C548.944 491.663 550.64 494.673 551.998 498.059C553.452 501.352 554.567 504.926 555.343 508.782C556.118 512.639 556.506 516.872 556.506 521.481C556.312 528.159 555.391 534.179 553.743 539.54C552.192 544.808 549.768 549.323 546.472 553.085C543.273 556.847 539.104 559.763 533.966 561.833C528.827 563.808 522.672 564.795 515.497 564.795H493.829ZM509.826 552.379H515.061C521.265 552.379 526.209 551.11 529.894 548.57C533.675 545.936 536.389 542.315 538.037 537.706C539.686 533.097 540.461 527.736 540.364 521.622C540.364 515.131 539.637 509.488 538.183 504.691C536.825 499.894 534.402 496.178 530.912 493.545C527.422 490.911 522.672 489.594 516.66 489.594H509.826V552.379ZM602.75 566.347C597.902 566.347 593.394 565.595 589.226 564.09C585.154 562.585 581.567 560.422 578.465 557.6C575.46 554.684 573.133 551.11 571.484 546.877C569.836 542.644 569.012 537.847 569.012 532.486C569.012 527.03 569.836 522.139 571.484 517.812C573.133 513.485 575.362 509.817 578.174 506.807C581.082 503.797 584.476 501.54 588.353 500.035C592.231 498.436 596.4 497.636 600.859 497.636C604.835 497.636 608.567 498.295 612.057 499.611C615.547 500.928 618.601 502.951 621.218 505.678C623.933 508.312 626.066 511.651 627.617 515.696C629.168 519.646 629.944 524.255 629.944 529.523C629.944 530.463 629.895 531.592 629.798 532.909C629.798 534.226 629.749 535.355 629.653 536.295H584.863C585.057 539.399 585.687 542.08 586.754 544.337C587.82 546.501 589.226 548.288 590.971 549.699C592.716 551.11 594.655 552.191 596.788 552.944C598.92 553.602 601.15 553.931 603.477 553.931C605.513 553.931 607.452 553.743 609.294 553.367C611.233 552.991 613.026 552.332 614.675 551.392C616.42 550.451 618.068 549.228 619.619 547.723L628.053 555.625C625.921 558.07 623.496 560.139 620.782 561.833C618.165 563.432 615.305 564.56 612.202 565.219C609.197 565.971 606.046 566.347 602.75 566.347ZM585.154 524.302H613.947C613.947 522.045 613.608 520.023 612.929 518.235C612.348 516.448 611.475 514.943 610.312 513.721C609.149 512.498 607.694 511.604 605.949 511.04C604.301 510.381 602.363 510.052 600.132 510.052C598.291 510.052 596.497 510.334 594.752 510.899C593.103 511.369 591.601 512.216 590.244 513.438C588.886 514.661 587.772 516.166 586.899 517.953C586.026 519.74 585.445 521.857 585.154 524.302ZM668.626 564.795L643.177 499.188H660.337L677.642 546.171H675.315L684.477 524.726C686.318 520.211 687.773 515.79 688.84 511.463C690.003 507.136 690.73 503.045 691.021 499.188H706.435C705.95 503.327 704.885 507.701 703.236 512.31C701.685 516.919 699.892 521.669 697.856 526.56L681.568 564.795H668.626Z"/>
<path fill="#646569" d="M750.935 566.63C740.949 566.63 733.242 563.761 727.812 558.023C722.481 552.191 719.814 544.196 719.814 534.038V476.896H736.102H737.41V478.166C736.925 478.73 736.587 479.341 736.392 480C736.296 480.658 736.247 481.787 736.247 483.386V534.179C736.247 540.199 737.314 544.949 739.446 548.429C741.676 551.909 745.554 553.649 751.08 553.649C756.703 553.649 760.629 551.909 762.859 548.429C765.089 544.855 766.204 539.963 766.204 533.755V476.896H782.2V533.614C782.2 541.139 780.891 547.347 778.274 552.238C775.656 557.129 771.972 560.751 767.222 563.102C762.568 565.454 757.139 566.63 750.935 566.63ZM803.577 564.795L791.653 476.896H805.904L812.012 532.062L823.645 483.809H832.371L844.004 531.921L848.803 476.896H862.182L850.403 564.795H840.078L827.281 510.617L814.193 564.795H803.577Z"/>
</g>
</g>
<defs>
<clipPath id="clip0_1_2">
<rect fill="white" height="750" width="1125"/>
</clipPath>
<clipPath id="clip1_1_2">
<rect transform="translate(262 470)" fill="white" height="97" width="601"/>
</clipPath>
</defs>
</svg>